<svg width="122" height="39" viewBox="0 0 122 39" fill="none" xmlns="http://www.w3.org/2000/svg">
<g filter="url(#filter0_d_15_1773)">
<rect x="3.67184" y="3.66" width="31.68" height="31.68" rx="15.84" stroke="#FCC436" stroke-width="1.32"/>
</g>
<path d="M49.7438 23V14.15H52.6058C53.1978 14.15 53.7358 14.258 54.2198 14.474C54.7078 14.686 55.1258 14.988 55.4738 15.38C55.8258 15.768 56.0958 16.232 56.2838 16.772C56.4718 17.312 56.5658 17.908 56.5658 18.56C56.5658 19.212 56.4718 19.81 56.2838 20.354C56.0958 20.898 55.8258 21.368 55.4738 21.764C55.1258 22.156 54.7078 22.46 54.2198 22.676C53.7358 22.892 53.1978 23 52.6058 23H49.7438ZM51.6158 22.448L50.7758 21.56H52.3658C52.7978 21.56 53.1878 21.44 53.5358 21.2C53.8878 20.956 54.1658 20.61 54.3698 20.162C54.5738 19.71 54.6758 19.176 54.6758 18.56C54.6758 17.94 54.5738 17.41 54.3698 16.97C54.1658 16.526 53.8878 16.186 53.5358 15.95C53.1878 15.71 52.7978 15.59 52.3658 15.59H50.7758L51.6158 14.702V22.448ZM58.5026 20.372V19.142H62.7266L62.5466 19.454C62.5466 19.422 62.5466 19.392 62.5466 19.364C62.5466 19.332 62.5466 19.302 62.5466 19.274C62.5466 19.046 62.4926 18.828 62.3846 18.62C62.2766 18.408 62.1086 18.236 61.8806 18.104C61.6566 17.968 61.3686 17.9 61.0166 17.9C60.6646 17.9 60.3606 17.976 60.1046 18.128C59.8526 18.276 59.6586 18.49 59.5226 18.77C59.3906 19.05 59.3246 19.388 59.3246 19.784C59.3246 20.192 59.3886 20.542 59.5166 20.834C59.6486 21.122 59.8426 21.344 60.0986 21.5C60.3586 21.656 60.6806 21.734 61.0646 21.734C61.3126 21.734 61.5266 21.712 61.7066 21.668C61.8866 21.62 62.0326 21.56 62.1446 21.488C62.2606 21.416 62.3486 21.336 62.4086 21.248C62.4686 21.16 62.5046 21.074 62.5166 20.99H64.3526C64.3286 21.258 64.2366 21.522 64.0766 21.782C63.9166 22.038 63.6946 22.27 63.4106 22.478C63.1266 22.682 62.7806 22.844 62.3726 22.964C61.9686 23.084 61.5066 23.144 60.9866 23.144C60.2826 23.144 59.6686 23.004 59.1446 22.724C58.6206 22.44 58.2146 22.05 57.9266 21.554C57.6386 21.054 57.4946 20.478 57.4946 19.826C57.4946 19.166 57.6406 18.588 57.9326 18.092C58.2286 17.592 58.6386 17.204 59.1626 16.928C59.6906 16.648 60.3006 16.508 60.9926 16.508C61.7006 16.508 62.3126 16.65 62.8286 16.934C63.3446 17.214 63.7426 17.608 64.0226 18.116C64.3026 18.62 64.4426 19.208 64.4426 19.88C64.4426 19.98 64.4406 20.076 64.4366 20.168C64.4326 20.26 64.4266 20.328 64.4186 20.372H58.5026ZM68.257 23.144C67.877 23.144 67.511 23.1 67.159 23.012C66.807 22.924 66.491 22.794 66.211 22.622C65.935 22.45 65.715 22.236 65.551 21.98C65.391 21.72 65.311 21.418 65.311 21.074C65.311 21.058 65.311 21.04 65.311 21.02C65.311 20.996 65.311 20.978 65.311 20.966H67.159C67.159 20.978 67.159 20.992 67.159 21.008C67.159 21.02 67.159 21.034 67.159 21.05C67.159 21.282 67.261 21.452 67.465 21.56C67.673 21.668 67.953 21.722 68.305 21.722C68.489 21.722 68.665 21.704 68.833 21.668C69.005 21.628 69.145 21.566 69.253 21.482C69.365 21.394 69.421 21.284 69.421 21.152C69.421 20.94 69.303 20.79 69.067 20.702C68.835 20.614 68.461 20.526 67.945 20.438C67.653 20.39 67.357 20.322 67.057 20.234C66.757 20.146 66.481 20.03 66.229 19.886C65.977 19.738 65.775 19.552 65.623 19.328C65.471 19.1 65.395 18.824 65.395 18.5C65.395 18.068 65.525 17.704 65.785 17.408C66.049 17.112 66.399 16.888 66.835 16.736C67.271 16.584 67.751 16.508 68.275 16.508C68.775 16.508 69.241 16.592 69.673 16.76C70.105 16.924 70.455 17.162 70.723 17.474C70.991 17.782 71.125 18.154 71.125 18.59C71.125 18.598 71.125 18.61 71.125 18.626C71.125 18.642 71.125 18.658 71.125 18.674H69.295C69.295 18.658 69.295 18.644 69.295 18.632C69.295 18.62 69.295 18.61 69.295 18.602C69.295 18.442 69.243 18.312 69.139 18.212C69.039 18.112 68.911 18.038 68.755 17.99C68.599 17.938 68.437 17.912 68.269 17.912C68.117 17.912 67.959 17.93 67.795 17.966C67.635 17.998 67.499 18.054 67.387 18.134C67.275 18.21 67.219 18.318 67.219 18.458C67.219 18.594 67.279 18.706 67.399 18.794C67.519 18.878 67.687 18.948 67.903 19.004C68.119 19.056 68.369 19.106 68.653 19.154C68.921 19.198 69.203 19.26 69.499 19.34C69.799 19.416 70.079 19.526 70.339 19.67C70.603 19.81 70.815 19.996 70.975 20.228C71.139 20.456 71.221 20.746 71.221 21.098C71.221 21.462 71.137 21.774 70.969 22.034C70.801 22.294 70.573 22.506 70.285 22.67C70.001 22.83 69.683 22.948 69.331 23.024C68.983 23.104 68.625 23.144 68.257 23.144ZM75.0305 23.144C74.6505 23.144 74.2845 23.1 73.9325 23.012C73.5805 22.924 73.2645 22.794 72.9845 22.622C72.7085 22.45 72.4885 22.236 72.3245 21.98C72.1645 21.72 72.0845 21.418 72.0845 21.074C72.0845 21.058 72.0845 21.04 72.0845 21.02C72.0845 20.996 72.0845 20.978 72.0845 20.966H73.9325C73.9325 20.978 73.9325 20.992 73.9325 21.008C73.9325 21.02 73.9325 21.034 73.9325 21.05C73.9325 21.282 74.0345 21.452 74.2385 21.56C74.4465 21.668 74.7265 21.722 75.0785 21.722C75.2625 21.722 75.4385 21.704 75.6065 21.668C75.7785 21.628 75.9185 21.566 76.0265 21.482C76.1385 21.394 76.1945 21.284 76.1945 21.152C76.1945 20.94 76.0765 20.79 75.8405 20.702C75.6085 20.614 75.2345 20.526 74.7185 20.438C74.4265 20.39 74.1305 20.322 73.8305 20.234C73.5305 20.146 73.2545 20.03 73.0025 19.886C72.7505 19.738 72.5485 19.552 72.3965 19.328C72.2445 19.1 72.1685 18.824 72.1685 18.5C72.1685 18.068 72.2985 17.704 72.5585 17.408C72.8225 17.112 73.1725 16.888 73.6085 16.736C74.0445 16.584 74.5245 16.508 75.0485 16.508C75.5485 16.508 76.0145 16.592 76.4465 16.76C76.8785 16.924 77.2285 17.162 77.4965 17.474C77.7645 17.782 77.8985 18.154 77.8985 18.59C77.8985 18.598 77.8985 18.61 77.8985 18.626C77.8985 18.642 77.8985 18.658 77.8985 18.674H76.0685C76.0685 18.658 76.0685 18.644 76.0685 18.632C76.0685 18.62 76.0685 18.61 76.0685 18.602C76.0685 18.442 76.0165 18.312 75.9125 18.212C75.8125 18.112 75.6845 18.038 75.5285 17.99C75.3725 17.938 75.2105 17.912 75.0425 17.912C74.8905 17.912 74.7325 17.93 74.5685 17.966C74.4085 17.998 74.2725 18.054 74.1605 18.134C74.0485 18.21 73.9925 18.318 73.9925 18.458C73.9925 18.594 74.0525 18.706 74.1725 18.794C74.2925 18.878 74.4605 18.948 74.6765 19.004C74.8925 19.056 75.1425 19.106 75.4265 19.154C75.6945 19.198 75.9765 19.26 76.2725 19.34C76.5725 19.416 76.8525 19.526 77.1125 19.67C77.3765 19.81 77.5885 19.996 77.7485 20.228C77.9125 20.456 77.9945 20.746 77.9945 21.098C77.9945 21.462 77.9105 21.774 77.7425 22.034C77.5745 22.294 77.3465 22.506 77.0585 22.67C76.7745 22.83 76.4565 22.948 76.1045 23.024C75.7565 23.104 75.3985 23.144 75.0305 23.144ZM79.8659 20.372V19.142H84.0899L83.9099 19.454C83.9099 19.422 83.9099 19.392 83.9099 19.364C83.9099 19.332 83.9099 19.302 83.9099 19.274C83.9099 19.046 83.8559 18.828 83.7479 18.62C83.6399 18.408 83.4719 18.236 83.2439 18.104C83.0199 17.968 82.7319 17.9 82.3799 17.9C82.0279 17.9 81.7239 17.976 81.4679 18.128C81.2159 18.276 81.0219 18.49 80.8859 18.77C80.7539 19.05 80.6879 19.388 80.6879 19.784C80.6879 20.192 80.7519 20.542 80.8799 20.834C81.0119 21.122 81.2059 21.344 81.4619 21.5C81.7219 21.656 82.0439 21.734 82.4279 21.734C82.6759 21.734 82.8899 21.712 83.0699 21.668C83.2499 21.62 83.3959 21.56 83.5079 21.488C83.6239 21.416 83.7119 21.336 83.7719 21.248C83.8319 21.16 83.8679 21.074 83.8799 20.99H85.7159C85.6919 21.258 85.5999 21.522 85.4399 21.782C85.2799 22.038 85.0579 22.27 84.7739 22.478C84.4899 22.682 84.1439 22.844 83.7359 22.964C83.3319 23.084 82.8699 23.144 82.3499 23.144C81.6459 23.144 81.0319 23.004 80.5079 22.724C79.9839 22.44 79.5779 22.05 79.2899 21.554C79.0019 21.054 78.8579 20.478 78.8579 19.826C78.8579 19.166 79.0039 18.588 79.2959 18.092C79.5919 17.592 80.0019 17.204 80.5259 16.928C81.0539 16.648 81.6639 16.508 82.3559 16.508C83.0639 16.508 83.6759 16.65 84.1919 16.934C84.7079 17.214 85.1059 17.608 85.3859 18.116C85.6659 18.62 85.8059 19.208 85.8059 19.88C85.8059 19.98 85.8039 20.076 85.7999 20.168C85.7959 20.26 85.7899 20.328 85.7819 20.372H79.8659ZM86.9683 23V16.628H88.8343V18.824L88.4503 18.584C88.4943 18.284 88.5743 18.008 88.6903 17.756C88.8063 17.504 88.9563 17.286 89.1403 17.102C89.3243 16.914 89.5423 16.768 89.7943 16.664C90.0503 16.56 90.3423 16.508 90.6703 16.508C90.9263 16.508 91.1263 16.528 91.2703 16.568C91.4183 16.604 91.5103 16.632 91.5463 16.652L91.2403 18.32C91.2043 18.3 91.1243 18.268 91.0003 18.224C90.8763 18.18 90.7163 18.158 90.5203 18.158C90.2003 18.158 89.9323 18.212 89.7163 18.32C89.5003 18.428 89.3263 18.572 89.1943 18.752C89.0663 18.928 88.9743 19.124 88.9183 19.34C88.8623 19.556 88.8343 19.774 88.8343 19.994V23H86.9683ZM95.6198 23.132C95.3758 23.132 95.1238 23.11 94.8638 23.066C94.6078 23.026 94.3678 22.944 94.1438 22.82C93.9238 22.692 93.7458 22.506 93.6098 22.262C93.4738 22.018 93.4058 21.696 93.4058 21.296C93.4058 21.208 93.4058 21.118 93.4058 21.026C93.4058 20.934 93.4058 20.842 93.4058 20.75V18.068H91.9358V16.628H92.3498C92.5898 16.628 92.7798 16.618 92.9198 16.598C93.0638 16.578 93.1698 16.528 93.2378 16.448C93.3098 16.364 93.3558 16.234 93.3758 16.058C93.3958 15.882 93.4058 15.64 93.4058 15.332V14.528H95.2718V16.628H97.1258V18.068H95.2718V20.36C95.2718 20.432 95.2718 20.502 95.2718 20.57C95.2718 20.638 95.2718 20.704 95.2718 20.768C95.2718 21.044 95.3038 21.268 95.3678 21.44C95.4358 21.612 95.6018 21.698 95.8658 21.698C95.9978 21.698 96.1218 21.686 96.2378 21.662C96.3578 21.638 96.4478 21.614 96.5078 21.59V22.988C96.4238 23.024 96.3058 23.056 96.1538 23.084C96.0018 23.116 95.8238 23.132 95.6198 23.132Z" fill="#FCC436"/>
<path d="M28.6742 17.5299V26.731C28.6742 27.0591 28.4084 27.3246 28.0805 27.3246H10.8655C10.5376 27.3246 10.2719 27.0591 10.2719 26.731V17.5299C10.2719 17.2023 10.5376 16.9362 10.8655 16.9362L20.9559 15.322" stroke="#FCC436" stroke-width="1.98" stroke-miterlimit="10" stroke-linecap="round" stroke-linejoin="round"/>
<path d="M26.0084 14.577C27.5054 14.7285 28.6741 15.9931 28.6741 17.5299" stroke="#FCC436" stroke-width="1.98" stroke-miterlimit="10" stroke-linecap="round" stroke-linejoin="round"/>
<path d="M10.2719 17.27L10.5687 21.0915C11.3884 21.0915 12.0527 20.4272 12.0527 19.6078C12.0527 18.7881 12.7171 18.1234 13.5368 18.1234C14.3565 18.1234 15.0208 18.7881 15.0208 19.6078C15.0208 20.4272 15.6852 21.0915 16.5049 21.0915C17.3246 21.0915 17.989 20.4272 17.989 19.6078C17.989 18.7881 18.6533 18.1234 19.473 18.1234C20.2927 18.1234 20.9571 18.7881 20.9571 19.6078C20.9571 20.4272 21.6214 21.0915 22.4411 21.0915C23.2608 21.0915 23.9252 20.4272 23.9252 19.6078C23.9252 18.7881 24.5895 18.1234 25.4092 18.1234C26.2289 18.1234 26.8933 18.7881 26.8933 19.6078C26.8933 20.4272 27.5577 21.0915 28.3774 21.0915L28.0919 14.96" fill="#FCC436"/>
<path d="M10.2719 23.9933H28.6742" stroke="#FCC436" stroke-width="1.98" stroke-miterlimit="10" stroke-linecap="round" stroke-linejoin="round"/>
<path d="M23.48 17.036C24.8464 17.036 25.954 15.9283 25.954 14.5619C25.954 13.1956 24.8464 12.0879 23.48 12.0879C22.1136 12.0879 21.0059 13.1956 21.0059 14.5619C21.0059 15.9283 22.1136 17.036 23.48 17.036Z" stroke="#FCC436" stroke-width="1.98" stroke-miterlimit="10" stroke-linecap="round" stroke-linejoin="round"/>
<path d="M23.4799 13.9681C23.4799 12.3289 24.8086 11 26.448 11" stroke="#FCC436" stroke-width="1.32" stroke-miterlimit="10" stroke-linecap="round" stroke-linejoin="round"/>
<defs>
<filter id="filter0_d_15_1773" x="0.096664" y="0.0848231" width="38.8304" height="38.8304" filterUnits="userSpaceOnUse" color-interpolation-filters="sRGB">
<feFlood flood-opacity="0" result="BackgroundImageFix"/>
<feColorMatrix in="SourceAlpha" type="matrix" values="0 0 0 0 0 0 0 0 0 0 0 0 0 0 0 0 0 0 127 0" result="hardAlpha"/>
<feOffset/>
<feGaussianBlur stdDeviation="1.45759"/>
<feComposite in2="hardAlpha" operator="out"/>
<feColorMatrix type="matrix" values="0 0 0 0 0 0 0 0 0 0 0 0 0 0 0 0 0 0 0.25 0"/>
<feBlend mode="normal" in2="BackgroundImageFix" result="effect1_dropShadow_15_1773"/>
<feBlend mode="normal" in="SourceGraphic" in2="effect1_dropShadow_15_1773" result="shape"/>
</filter>
</defs>
</svg>
