<svg width="167" height="16" viewBox="0 0 167 16" fill="none" xmlns="http://www.w3.org/2000/svg">
<path d="M0.618356 15V0.25H6.09836C7.09169 0.25 8.00169 0.433333 8.82836 0.799999C9.65502 1.16667 10.3684 1.68 10.9684 2.34C11.5684 3 12.0317 3.77667 12.3584 4.67C12.685 5.56333 12.8484 6.53667 12.8484 7.59C12.8484 8.64333 12.685 9.62 12.3584 10.52C12.0317 11.42 11.5684 12.2067 10.9684 12.88C10.3684 13.5467 9.65502 14.0667 8.82836 14.44C8.00169 14.8133 7.09169 15 6.09836 15H0.618356ZM4.65836 13.82L2.83836 12H5.55836C6.13169 12 6.65836 11.8233 7.13836 11.47C7.62502 11.11 8.01502 10.6 8.30836 9.94C8.60169 9.28 8.74836 8.49667 8.74836 7.59C8.74836 6.67667 8.60169 5.89667 8.30836 5.25C8.01502 4.60333 7.62502 4.11 7.13836 3.77C6.65836 3.42333 6.13169 3.25 5.55836 3.25H2.83836L4.65836 1.43V13.82ZM23.4618 15.26C22.5085 15.26 21.6018 15.0967 20.7418 14.77C19.8885 14.4433 19.1318 13.9567 18.4718 13.31C17.8118 12.6633 17.2918 11.8633 16.9118 10.91C16.5318 9.95667 16.3418 8.85667 16.3418 7.61C16.3418 6.35667 16.5285 5.25667 16.9018 4.31C17.2818 3.36333 17.7985 2.57 18.4518 1.93C19.1118 1.29 19.8685 0.809999 20.7218 0.489999C21.5818 0.163332 22.4951 -1.19209e-06 23.4618 -1.19209e-06C24.4285 -1.19209e-06 25.3418 0.163332 26.2018 0.489999C27.0618 0.809999 27.8185 1.29 28.4718 1.93C29.1318 2.57 29.6485 3.36333 30.0218 4.31C30.3951 5.25667 30.5818 6.35667 30.5818 7.61C30.5818 8.85667 30.3918 9.95667 30.0118 10.91C29.6318 11.8633 29.1085 12.6633 28.4418 13.31C27.7818 13.9567 27.0218 14.4433 26.1618 14.77C25.3085 15.0967 24.4085 15.26 23.4618 15.26ZM23.4618 12.14C23.9551 12.14 24.4318 12.0067 24.8918 11.74C25.3585 11.4667 25.7385 11 26.0318 10.34C26.3318 9.68 26.4818 8.77 26.4818 7.61C26.4818 6.44333 26.3318 5.53667 26.0318 4.89C25.7318 4.23667 25.3518 3.78 24.8918 3.52C24.4318 3.25333 23.9551 3.12 23.4618 3.12C22.9751 3.12 22.4985 3.25333 22.0318 3.52C21.5718 3.78 21.1918 4.23667 20.8918 4.89C20.5918 5.53667 20.4418 6.44333 20.4418 7.61C20.4418 8.77667 20.5918 9.69 20.8918 10.35C21.1918 11.0033 21.5718 11.4667 22.0318 11.74C22.4985 12.0067 22.9751 12.14 23.4618 12.14ZM38.4163 15H34.4863V0.25H40.6463L44.7163 13.79L43.9363 13.95V0.25H47.8663V15H41.6563L37.5863 1.51L38.4163 1.35V15ZM54.4123 3.25L56.2323 1.43V7.18L55.3323 6.1H60.6323V9.1H55.3323L56.2323 8.03V13.82L54.4123 12H61.7423V15H52.1723V0.25H61.7423V3.25H54.4123ZM73.1496 15V0.25H79.6896C81.3696 0.25 82.6096 0.623333 83.4096 1.37C84.2163 2.11 84.6196 3.14333 84.6196 4.47C84.6196 5.21667 84.4763 5.85333 84.1896 6.38C83.9029 6.90667 83.5463 7.31333 83.1196 7.6C82.6929 7.88667 82.2696 8.04667 81.8496 8.08C82.2829 8.10667 82.6863 8.21 83.0596 8.39C83.4329 8.57 83.7329 8.86 83.9596 9.26C84.1929 9.65333 84.3096 10.1867 84.3096 10.86C84.3096 11.2867 84.3096 11.6933 84.3096 12.08C84.3096 12.4667 84.3096 12.8733 84.3096 13.3C84.3096 13.6533 84.3363 13.99 84.3896 14.31C84.4496 14.6233 84.5396 14.8533 84.6596 15H80.6196C80.5129 14.8333 80.4296 14.5967 80.3696 14.29C80.3163 13.9833 80.2896 13.6533 80.2896 13.3C80.2896 12.9333 80.2896 12.6033 80.2896 12.31C80.2896 12.0167 80.2896 11.6867 80.2896 11.32C80.2896 10.7867 80.1763 10.3667 79.9496 10.06C79.7229 9.74667 79.3129 9.59 78.7196 9.59H76.0396L77.0896 8.36V15H73.1496ZM77.0896 8L76.0396 6.59H78.7596C79.0996 6.59 79.3963 6.52 79.6496 6.38C79.9096 6.24 80.1096 6.04 80.2496 5.78C80.3963 5.51333 80.4696 5.20333 80.4696 4.85C80.4696 4.41667 80.3129 4.04 79.9996 3.72C79.6929 3.4 79.2729 3.24 78.7396 3.24H75.9396L77.0896 2.04V8ZM90.7904 3.25L92.6104 1.43V7.18L91.7104 6.1H97.0104V9.1H91.7104L92.6104 8.03V13.82L90.7904 12H98.1204V15H88.5504V0.25H98.1204V3.25H90.7904ZM114.615 9.43C114.615 10.1033 114.485 10.7833 114.225 11.47C113.971 12.15 113.581 12.7767 113.055 13.35C112.535 13.9233 111.871 14.3867 111.065 14.74C110.265 15.0867 109.315 15.26 108.215 15.26C106.768 15.26 105.528 14.9367 104.495 14.29C103.468 13.6367 102.681 12.7367 102.135 11.59C101.595 10.4433 101.325 9.12 101.325 7.62C101.325 6.12 101.595 4.8 102.135 3.66C102.681 2.51333 103.468 1.61667 104.495 0.969999C105.528 0.323332 106.768 -1.19209e-06 108.215 -1.19209e-06C109.415 -1.19209e-06 110.438 0.203333 111.285 0.61C112.138 1.01667 112.821 1.55 113.335 2.21C113.855 2.87 114.215 3.57667 114.415 4.33C114.548 4.84333 114.615 5.34 114.615 5.82H110.565C110.565 5.60667 110.551 5.42 110.525 5.26C110.465 4.82667 110.335 4.45 110.135 4.13C109.935 3.81 109.671 3.56333 109.345 3.39C109.025 3.21 108.648 3.12 108.215 3.12C107.695 3.12 107.225 3.27333 106.805 3.58C106.385 3.88667 106.048 4.37 105.795 5.03C105.548 5.69 105.425 6.55333 105.425 7.62C105.425 8.68 105.548 9.54333 105.795 10.21C106.048 10.8767 106.385 11.3667 106.805 11.68C107.225 11.9933 107.695 12.15 108.215 12.15C108.588 12.15 108.918 12.0833 109.205 11.95C109.498 11.81 109.745 11.6167 109.945 11.37C110.145 11.1233 110.298 10.8367 110.405 10.51C110.511 10.1767 110.565 9.81667 110.565 9.43H114.615ZM118.462 15V0.25H122.442V15H118.462ZM130.726 15H126.686V0.25H132.336C133.456 0.25 134.433 0.473333 135.266 0.919999C136.1 1.36 136.746 1.96333 137.206 2.73C137.666 3.49667 137.896 4.36333 137.896 5.33C137.896 6.29667 137.666 7.17667 137.206 7.97C136.746 8.75667 136.1 9.38667 135.266 9.86C134.433 10.3267 133.456 10.56 132.336 10.56H130.726V15ZM130.726 9.39L128.906 7.57H131.926C132.26 7.57 132.57 7.49 132.856 7.33C133.15 7.16333 133.386 6.91333 133.566 6.58C133.746 6.24667 133.836 5.83 133.836 5.33C133.836 4.83 133.746 4.42667 133.566 4.12C133.386 3.81333 133.15 3.59333 132.856 3.46C132.57 3.32 132.26 3.25 131.926 3.25H128.906L130.726 1.43V9.39ZM143.976 3.25L145.796 1.43V7.18L144.896 6.1H150.196V9.1H144.896L145.796 8.03V13.82L143.976 12H151.306V15H141.736V0.25H151.306V3.25H143.976ZM160.963 15.26C159.87 15.26 158.89 15.0867 158.023 14.74C157.156 14.3867 156.47 13.8633 155.963 13.17C155.463 12.4767 155.213 11.6167 155.213 10.59C155.213 10.5033 155.213 10.4167 155.213 10.33C155.213 10.2433 155.213 10.1567 155.213 10.07H159.243C159.243 10.1433 159.243 10.2167 159.243 10.29C159.243 10.3633 159.243 10.4367 159.243 10.51C159.243 10.9767 159.386 11.3667 159.673 11.68C159.966 11.9933 160.41 12.15 161.003 12.15C161.576 12.15 162.026 12.0667 162.353 11.9C162.686 11.7267 162.853 11.4467 162.853 11.06C162.853 10.7733 162.696 10.5067 162.383 10.26C162.076 10.0133 161.66 9.78 161.133 9.56C160.613 9.34 160.033 9.13 159.393 8.93C158.7 8.71 158.04 8.41333 157.413 8.04C156.793 7.66667 156.286 7.18333 155.893 6.59C155.5 5.99 155.303 5.24667 155.303 4.36C155.303 3.44667 155.556 2.66667 156.063 2.02C156.57 1.36667 157.25 0.866666 158.103 0.519999C158.963 0.173332 159.916 -1.19209e-06 160.963 -1.19209e-06C162.05 -1.19209e-06 163.02 0.169999 163.873 0.509999C164.733 0.849999 165.413 1.35 165.913 2.01C166.413 2.67 166.663 3.48667 166.663 4.46C166.663 4.54667 166.663 4.63 166.663 4.71C166.663 4.79 166.663 4.87333 166.663 4.96H162.633C162.633 4.92667 162.633 4.87667 162.633 4.81C162.633 4.73667 162.633 4.68333 162.633 4.65C162.633 4.21667 162.51 3.85 162.263 3.55C162.023 3.25 161.606 3.1 161.013 3.1C160.426 3.1 159.973 3.20667 159.653 3.42C159.34 3.63333 159.183 3.94333 159.183 4.35C159.183 4.63667 159.316 4.89 159.583 5.11C159.85 5.32333 160.216 5.52333 160.683 5.71C161.156 5.89667 161.69 6.09667 162.283 6.31C163.176 6.62333 163.96 6.97 164.633 7.35C165.306 7.72333 165.83 8.19333 166.203 8.76C166.583 9.32667 166.773 10.0533 166.773 10.94C166.773 11.8667 166.523 12.6533 166.023 13.3C165.523 13.94 164.833 14.4267 163.953 14.76C163.08 15.0933 162.083 15.26 160.963 15.26Z" fill="#41197F"/>
</svg>
