<svg width="124" height="16" viewBox="0 0 124 16" fill="none" xmlns="http://www.w3.org/2000/svg">
<path d="M2.3082 3.25L4.1282 1.43V7.29L2.8982 6.34H8.9782V9.35H2.8982L4.1282 8.32V15H0.108202V0.25H9.8682V3.25H2.3082ZM11.977 15L15.407 0.25H21.817L25.227 15H21.097L18.607 2.66H18.627L16.107 15H11.977ZM14.977 11.9V8.87H22.257V11.9H14.977ZM30.3285 15L26.9285 0.25H31.3985L33.4385 12.69H33.2885L35.3185 0.25H39.7885L36.4085 15H30.3285ZM49.3977 15.26C48.4444 15.26 47.5377 15.0967 46.6777 14.77C45.8244 14.4433 45.0677 13.9567 44.4077 13.31C43.7477 12.6633 43.2277 11.8633 42.8477 10.91C42.4677 9.95667 42.2777 8.85667 42.2777 7.61C42.2777 6.35667 42.4644 5.25667 42.8377 4.31C43.2177 3.36333 43.7344 2.57 44.3877 1.93C45.0477 1.29 45.8044 0.809999 46.6577 0.489999C47.5177 0.163332 48.4311 -1.19209e-06 49.3977 -1.19209e-06C50.3644 -1.19209e-06 51.2777 0.163332 52.1377 0.489999C52.9977 0.809999 53.7544 1.29 54.4077 1.93C55.0677 2.57 55.5844 3.36333 55.9577 4.31C56.3311 5.25667 56.5177 6.35667 56.5177 7.61C56.5177 8.85667 56.3277 9.95667 55.9477 10.91C55.5677 11.8633 55.0444 12.6633 54.3777 13.31C53.7177 13.9567 52.9577 14.4433 52.0977 14.77C51.2444 15.0967 50.3444 15.26 49.3977 15.26ZM49.3977 12.14C49.8911 12.14 50.3677 12.0067 50.8277 11.74C51.2944 11.4667 51.6744 11 51.9677 10.34C52.2677 9.68 52.4177 8.77 52.4177 7.61C52.4177 6.44333 52.2677 5.53667 51.9677 4.89C51.6677 4.23667 51.2877 3.78 50.8277 3.52C50.3677 3.25333 49.8911 3.12 49.3977 3.12C48.9111 3.12 48.4344 3.25333 47.9677 3.52C47.5077 3.78 47.1277 4.23667 46.8277 4.89C46.5277 5.53667 46.3777 6.44333 46.3777 7.61C46.3777 8.77667 46.5277 9.69 46.8277 10.35C47.1277 11.0033 47.5077 11.4667 47.9677 11.74C48.4344 12.0067 48.9111 12.14 49.3977 12.14ZM60.4223 15V0.25H66.9623C68.6423 0.25 69.8823 0.623333 70.6823 1.37C71.4889 2.11 71.8923 3.14333 71.8923 4.47C71.8923 5.21667 71.7489 5.85333 71.4623 6.38C71.1756 6.90667 70.8189 7.31333 70.3923 7.6C69.9656 7.88667 69.5423 8.04667 69.1223 8.08C69.5556 8.10667 69.9589 8.21 70.3323 8.39C70.7056 8.57 71.0056 8.86 71.2323 9.26C71.4656 9.65333 71.5823 10.1867 71.5823 10.86C71.5823 11.2867 71.5823 11.6933 71.5823 12.08C71.5823 12.4667 71.5823 12.8733 71.5823 13.3C71.5823 13.6533 71.6089 13.99 71.6623 14.31C71.7223 14.6233 71.8123 14.8533 71.9323 15H67.8923C67.7856 14.8333 67.7023 14.5967 67.6423 14.29C67.5889 13.9833 67.5623 13.6533 67.5623 13.3C67.5623 12.9333 67.5623 12.6033 67.5623 12.31C67.5623 12.0167 67.5623 11.6867 67.5623 11.32C67.5623 10.7867 67.4489 10.3667 67.2223 10.06C66.9956 9.74667 66.5856 9.59 65.9923 9.59H63.3123L64.3623 8.36V15H60.4223ZM64.3623 8L63.3123 6.59H66.0323C66.3723 6.59 66.6689 6.52 66.9223 6.38C67.1823 6.24 67.3823 6.04 67.5223 5.78C67.6689 5.51333 67.7423 5.20333 67.7423 4.85C67.7423 4.41667 67.5856 4.04 67.2723 3.72C66.9656 3.4 66.5456 3.24 66.0123 3.24H63.2123L64.3623 2.04V8ZM75.773 15V0.25H79.753V15H75.773ZM94.4373 3.25H89.1573L90.9773 1.43V15H86.9473V1.43L88.7673 3.25H83.4973V0.25H94.4373V3.25ZM100.486 3.25L102.306 1.43V7.18L101.406 6.1H106.706V9.1H101.406L102.306 8.03V13.82L100.486 12H107.816V15H98.2457V0.25H107.816V3.25H100.486ZM117.473 15.26C116.38 15.26 115.4 15.0867 114.533 14.74C113.666 14.3867 112.98 13.8633 112.473 13.17C111.973 12.4767 111.723 11.6167 111.723 10.59C111.723 10.5033 111.723 10.4167 111.723 10.33C111.723 10.2433 111.723 10.1567 111.723 10.07H115.753C115.753 10.1433 115.753 10.2167 115.753 10.29C115.753 10.3633 115.753 10.4367 115.753 10.51C115.753 10.9767 115.896 11.3667 116.183 11.68C116.476 11.9933 116.92 12.15 117.513 12.15C118.086 12.15 118.536 12.0667 118.863 11.9C119.196 11.7267 119.363 11.4467 119.363 11.06C119.363 10.7733 119.206 10.5067 118.893 10.26C118.586 10.0133 118.17 9.78 117.643 9.56C117.123 9.34 116.543 9.13 115.903 8.93C115.21 8.71 114.55 8.41333 113.923 8.04C113.303 7.66667 112.796 7.18333 112.403 6.59C112.01 5.99 111.813 5.24667 111.813 4.36C111.813 3.44667 112.066 2.66667 112.573 2.02C113.08 1.36667 113.76 0.866666 114.613 0.519999C115.473 0.173332 116.426 -1.19209e-06 117.473 -1.19209e-06C118.56 -1.19209e-06 119.53 0.169999 120.383 0.509999C121.243 0.849999 121.923 1.35 122.423 2.01C122.923 2.67 123.173 3.48667 123.173 4.46C123.173 4.54667 123.173 4.63 123.173 4.71C123.173 4.79 123.173 4.87333 123.173 4.96H119.143C119.143 4.92667 119.143 4.87667 119.143 4.81C119.143 4.73667 119.143 4.68333 119.143 4.65C119.143 4.21667 119.02 3.85 118.773 3.55C118.533 3.25 118.116 3.1 117.523 3.1C116.936 3.1 116.483 3.20667 116.163 3.42C115.85 3.63333 115.693 3.94333 115.693 4.35C115.693 4.63667 115.826 4.89 116.093 5.11C116.36 5.32333 116.726 5.52333 117.193 5.71C117.666 5.89667 118.2 6.09667 118.793 6.31C119.686 6.62333 120.47 6.97 121.143 7.35C121.816 7.72333 122.34 8.19333 122.713 8.76C123.093 9.32667 123.283 10.0533 123.283 10.94C123.283 11.8667 123.033 12.6533 122.533 13.3C122.033 13.94 121.343 14.4267 120.463 14.76C119.59 15.0933 118.593 15.26 117.473 15.26Z" fill="#41197F"/>
</svg>
