<svg width="93" height="16" viewBox="0 0 93 16" fill="none" xmlns="http://www.w3.org/2000/svg">
<path d="M4.0607 15H0.020704V0.25H5.6707C6.7907 0.25 7.76737 0.473333 8.6007 0.919999C9.43404 1.36 10.0807 1.96333 10.5407 2.73C11.0007 3.49667 11.2307 4.36333 11.2307 5.33C11.2307 6.29667 11.0007 7.17667 10.5407 7.97C10.0807 8.75667 9.43404 9.38667 8.6007 9.86C7.76737 10.3267 6.7907 10.56 5.6707 10.56H4.0607V15ZM4.0607 9.39L2.2407 7.57H5.2607C5.59404 7.57 5.90404 7.49 6.1907 7.33C6.48404 7.16333 6.7207 6.91333 6.9007 6.58C7.0807 6.24667 7.1707 5.83 7.1707 5.33C7.1707 4.83 7.0807 4.42667 6.9007 4.12C6.7207 3.81333 6.48404 3.59333 6.1907 3.46C5.90404 3.32 5.59404 3.25 5.2607 3.25H2.2407L4.0607 1.43V9.39ZM15.0699 15V0.25H21.6099C23.2899 0.25 24.5299 0.623333 25.3299 1.37C26.1366 2.11 26.5399 3.14333 26.5399 4.47C26.5399 5.21667 26.3966 5.85333 26.1099 6.38C25.8233 6.90667 25.4666 7.31333 25.0399 7.6C24.6133 7.88667 24.1899 8.04667 23.7699 8.08C24.2033 8.10667 24.6066 8.21 24.9799 8.39C25.3533 8.57 25.6533 8.86 25.8799 9.26C26.1133 9.65333 26.2299 10.1867 26.2299 10.86C26.2299 11.2867 26.2299 11.6933 26.2299 12.08C26.2299 12.4667 26.2299 12.8733 26.2299 13.3C26.2299 13.6533 26.2566 13.99 26.3099 14.31C26.3699 14.6233 26.4599 14.8533 26.5799 15H22.5399C22.4333 14.8333 22.3499 14.5967 22.2899 14.29C22.2366 13.9833 22.2099 13.6533 22.2099 13.3C22.2099 12.9333 22.2099 12.6033 22.2099 12.31C22.2099 12.0167 22.2099 11.6867 22.2099 11.32C22.2099 10.7867 22.0966 10.3667 21.8699 10.06C21.6433 9.74667 21.2333 9.59 20.6399 9.59H17.9599L19.0099 8.36V15H15.0699ZM19.0099 8L17.9599 6.59H20.6799C21.0199 6.59 21.3166 6.52 21.5699 6.38C21.8299 6.24 22.0299 6.04 22.1699 5.78C22.3166 5.51333 22.3899 5.20333 22.3899 4.85C22.3899 4.41667 22.2333 4.04 21.9199 3.72C21.6133 3.4 21.1933 3.24 20.6599 3.24H17.8599L19.0099 2.04V8ZM37.1907 15.26C36.2374 15.26 35.3307 15.0967 34.4707 14.77C33.6174 14.4433 32.8607 13.9567 32.2007 13.31C31.5407 12.6633 31.0207 11.8633 30.6407 10.91C30.2607 9.95667 30.0707 8.85667 30.0707 7.61C30.0707 6.35667 30.2574 5.25667 30.6307 4.31C31.0107 3.36333 31.5274 2.57 32.1807 1.93C32.8407 1.29 33.5974 0.809999 34.4507 0.489999C35.3107 0.163332 36.224 -1.19209e-06 37.1907 -1.19209e-06C38.1574 -1.19209e-06 39.0707 0.163332 39.9307 0.489999C40.7907 0.809999 41.5474 1.29 42.2007 1.93C42.8607 2.57 43.3774 3.36333 43.7507 4.31C44.124 5.25667 44.3107 6.35667 44.3107 7.61C44.3107 8.85667 44.1207 9.95667 43.7407 10.91C43.3607 11.8633 42.8374 12.6633 42.1707 13.31C41.5107 13.9567 40.7507 14.4433 39.8907 14.77C39.0374 15.0967 38.1374 15.26 37.1907 15.26ZM37.1907 12.14C37.684 12.14 38.1607 12.0067 38.6207 11.74C39.0874 11.4667 39.4674 11 39.7607 10.34C40.0607 9.68 40.2107 8.77 40.2107 7.61C40.2107 6.44333 40.0607 5.53667 39.7607 4.89C39.4607 4.23667 39.0807 3.78 38.6207 3.52C38.1607 3.25333 37.684 3.12 37.1907 3.12C36.704 3.12 36.2274 3.25333 35.7607 3.52C35.3007 3.78 34.9207 4.23667 34.6207 4.89C34.3207 5.53667 34.1707 6.44333 34.1707 7.61C34.1707 8.77667 34.3207 9.69 34.6207 10.35C34.9207 11.0033 35.3007 11.4667 35.7607 11.74C36.2274 12.0067 36.704 12.14 37.1907 12.14ZM50.4152 3.25L52.2352 1.43V7.29L51.0052 6.34H57.0852V9.35H51.0052L52.2352 8.32V15H48.2152V0.25H57.9752V3.25H50.4152ZM62.0231 15V0.25H66.0031V15H62.0231ZM70.2473 15V0.25H74.2873V13.81L72.4673 11.79H79.5473V15H70.2473ZM85.642 3.25L87.462 1.43V7.18L86.562 6.1H91.862V9.1H86.562L87.462 8.03V13.82L85.642 12H92.972V15H83.402V0.25H92.972V3.25H85.642Z" fill="#41197F"/>
</svg>
